<svg width="252" height="45" viewBox="0 0 252 45" fill="none" xmlns="http://www.w3.org/2000/svg">
<path d="M25.288 9.376C24.264 8.26667 23.176 7.43466 22.024 6.88C20.9147 6.28266 19.6133 5.984 18.12 5.984C16.2853 5.984 14.728 6.41066 13.448 7.264C12.2107 8.07467 11.208 9.22667 10.44 10.72C9.672 12.1707 9.11733 13.8773 8.776 15.84C8.43467 17.8027 8.264 19.9147 8.264 22.176C8.264 24.4373 8.41333 26.5493 8.712 28.512C9.05333 30.4747 9.608 32.2027 10.376 33.696C11.1867 35.1893 12.2533 36.3627 13.576 37.216C14.9413 38.0693 16.648 38.496 18.696 38.496C19.6773 38.496 20.616 38.4107 21.512 38.24C22.408 38.0693 23.2187 37.8987 23.944 37.728C24.712 37.5147 25.3307 37.3227 25.8 37.152C26.312 36.9813 26.632 36.8747 26.76 36.832L28.552 42.208L27.72 42.528C27.1653 42.7413 26.376 42.9973 25.352 43.296C24.3707 43.552 23.176 43.7867 21.768 44C20.4027 44.256 18.888 44.384 17.224 44.384C11.5067 44.384 7.19733 42.5707 4.296 38.944C1.43733 35.2747 0.00800014 29.92 0.00800014 22.88C0.00800014 19.5093 0.392 16.4373 1.16 13.664C1.928 10.848 3.08 8.43733 4.616 6.432C6.19467 4.42667 8.15733 2.86933 10.504 1.76C12.8933 0.650664 15.688 0.0959969 18.888 0.0959969C21.448 0.0959969 23.5387 0.565331 25.16 1.504C26.824 2.44267 28.168 3.50933 29.192 4.704L25.288 9.376ZM56.809 28.576C56.809 31.136 56.9583 33.2907 57.257 35.04C57.5983 36.7467 57.961 38.1333 58.345 39.2C58.8143 40.48 59.3263 41.4827 59.881 42.208L54.185 44.512C53.6303 43.9573 53.1183 43.296 52.649 42.528C52.265 41.8453 51.9023 41.0347 51.561 40.096C51.2197 39.1147 51.0063 37.9627 50.921 36.64C50.1957 39.2 49.0223 41.1413 47.401 42.464C45.8223 43.744 43.6677 44.384 40.937 44.384C38.9317 44.384 37.1823 44.0213 35.689 43.296C34.2383 42.528 33.0223 41.4613 32.041 40.096C31.0597 38.688 30.3343 37.0027 29.865 35.04C29.3957 33.0773 29.161 30.9013 29.161 28.512C29.161 26.08 29.5237 23.84 30.249 21.792C31.017 19.7013 32.0623 17.9093 33.385 16.416C34.7503 14.9227 36.3717 13.7493 38.249 12.896C40.1263 12.0427 42.1957 11.616 44.457 11.616C45.737 11.616 47.0597 11.7227 48.425 11.936C49.833 12.1067 51.1343 12.2987 52.329 12.512C53.5237 12.7253 54.5263 12.9387 55.337 13.152C56.1903 13.3227 56.681 13.4293 56.809 13.472V28.576ZM42.153 39.264C43.2197 39.264 44.201 38.9013 45.097 38.176C45.993 37.4507 46.761 36.512 47.401 35.36C48.0837 34.1653 48.5957 32.8213 48.937 31.328C49.321 29.792 49.513 28.2347 49.513 26.656V17.44C49.0863 17.312 48.4463 17.1627 47.593 16.992C46.7397 16.8213 45.9717 16.736 45.289 16.736C43.6677 16.736 42.3237 17.0133 41.257 17.568C40.233 18.1227 39.401 18.8907 38.761 19.872C38.121 20.8533 37.673 22.0267 37.417 23.392C37.161 24.7573 37.033 26.2507 37.033 27.872C37.033 29.3653 37.0757 30.7947 37.161 32.16C37.2463 33.5253 37.4597 34.7413 37.801 35.808C38.185 36.8747 38.7183 37.728 39.401 38.368C40.0837 38.9653 41.001 39.264 42.153 39.264ZM61.1695 12.128H66.9295L68.2095 4.64L74.2255 3.296V12.128H82.0975L81.2015 17.312H74.2255V36.256C74.2255 37.3653 74.5242 38.0907 75.1215 38.432C75.7188 38.7307 76.3802 38.88 77.1055 38.88C77.7028 38.88 78.3002 38.8373 78.8975 38.752C79.4948 38.6667 80.0282 38.56 80.4975 38.432C81.0522 38.304 81.5855 38.1547 82.0975 37.984L83.3135 42.784L82.7375 42.976C82.3535 43.1467 81.7775 43.3387 81.0095 43.552C80.2842 43.7227 79.4095 43.872 78.3855 44C77.4042 44.1707 76.3162 44.256 75.1215 44.256C73.9268 44.256 72.8175 44.128 71.7935 43.872C70.8122 43.616 69.9588 43.2107 69.2335 42.656C68.5082 42.0587 67.9322 41.312 67.5055 40.416C67.1215 39.52 66.9295 38.4107 66.9295 37.088V17.312H61.1695V12.128ZM112.903 24.288H95.0465V44H87.4305V0.671997H95.0465V18.72H112.903V0.671997H120.519V44H112.903V24.288ZM153.759 28.576C153.759 31.136 153.909 33.2907 154.208 35.04C154.549 36.7467 154.911 38.1333 155.295 39.2C155.765 40.48 156.277 41.4827 156.832 42.208L151.135 44.512C150.581 43.9573 150.069 43.296 149.599 42.528C149.215 41.8453 148.853 41.0347 148.511 40.096C148.17 39.1147 147.957 37.9627 147.872 36.64C147.146 39.2 145.973 41.1413 144.351 42.464C142.773 43.744 140.618 44.384 137.887 44.384C135.882 44.384 134.133 44.0213 132.639 43.296C131.189 42.528 129.973 41.4613 128.991 40.096C128.01 38.688 127.285 37.0027 126.815 35.04C126.346 33.0773 126.111 30.9013 126.111 28.512C126.111 26.08 126.474 23.84 127.199 21.792C127.967 19.7013 129.013 17.9093 130.335 16.416C131.701 14.9227 133.322 13.7493 135.199 12.896C137.077 12.0427 139.146 11.616 141.407 11.616C142.687 11.616 144.01 11.7227 145.375 11.936C146.783 12.1067 148.085 12.2987 149.279 12.512C150.474 12.7253 151.477 12.9387 152.288 13.152C153.141 13.3227 153.631 13.4293 153.759 13.472V28.576ZM139.103 39.264C140.17 39.264 141.151 38.9013 142.047 38.176C142.943 37.4507 143.711 36.512 144.351 35.36C145.034 34.1653 145.546 32.8213 145.887 31.328C146.271 29.792 146.463 28.2347 146.463 26.656V17.44C146.037 17.312 145.397 17.1627 144.543 16.992C143.69 16.8213 142.922 16.736 142.239 16.736C140.618 16.736 139.274 17.0133 138.207 17.568C137.183 18.1227 136.351 18.8907 135.711 19.872C135.071 20.8533 134.623 22.0267 134.367 23.392C134.111 24.7573 133.983 26.2507 133.983 27.872C133.983 29.3653 134.026 30.7947 134.111 32.16C134.197 33.5253 134.41 34.7413 134.751 35.808C135.135 36.8747 135.669 37.728 136.351 38.368C137.034 38.9653 137.951 39.264 139.103 39.264ZM187.496 12.128L187.624 12.64C187.667 13.024 187.731 13.536 187.816 14.176C187.901 14.7733 187.965 15.4773 188.008 16.288C188.093 17.056 188.136 17.8453 188.136 18.656C188.136 23.392 187.773 27.4027 187.048 30.688C186.365 33.9307 185.299 36.576 183.848 38.624C182.44 40.6293 180.627 42.08 178.408 42.976C176.232 43.872 173.651 44.32 170.664 44.32C167.293 44.32 164.883 43.36 163.432 41.44C162.024 39.4773 161.32 36.7893 161.32 33.376V12.128H168.616V33.184C168.616 34.976 168.936 36.4267 169.576 37.536C170.216 38.6453 171.304 39.2 172.84 39.2C174.376 39.2 175.656 38.624 176.68 37.472C177.704 36.32 178.515 34.8267 179.112 32.992C179.709 31.1147 180.136 29.0027 180.392 26.656C180.648 24.2667 180.776 21.856 180.776 19.424C180.776 18.528 180.733 17.6533 180.648 16.8C180.605 15.904 180.52 15.1147 180.392 14.432C180.307 13.7493 180.243 13.1947 180.2 12.768L180.072 12.128H187.496ZM192.579 28.832C192.579 25.9733 192.963 23.456 193.731 21.28C194.541 19.104 195.629 17.2907 196.995 15.84C198.403 14.3467 200.045 13.2373 201.923 12.512C203.8 11.744 205.827 11.36 208.003 11.36C209.923 11.36 211.544 11.5947 212.867 12.064C214.232 12.5333 215.341 13.1733 216.195 13.984C217.048 14.7947 217.667 15.7547 218.051 16.864C218.477 17.9733 218.691 19.168 218.691 20.448C218.691 21.984 218.264 23.456 217.411 24.864C216.557 26.2293 215.32 27.4453 213.699 28.512C212.12 29.536 210.2 30.368 207.939 31.008C205.677 31.6053 203.139 31.9253 200.323 31.968C200.451 32.9493 200.643 33.888 200.899 34.784C201.197 35.6373 201.603 36.4053 202.115 37.088C202.669 37.728 203.373 38.24 204.227 38.624C205.08 39.008 206.147 39.2 207.427 39.2C208.365 39.2 209.368 39.0933 210.435 38.88C211.501 38.6667 212.483 38.4107 213.379 38.112C214.445 37.7707 215.491 37.3867 216.515 36.96L218.435 41.504C217.325 42.0587 216.131 42.5493 214.851 42.976C213.741 43.36 212.461 43.7013 211.011 44C209.56 44.2987 208.024 44.448 206.403 44.448C203.928 44.448 201.816 44.0853 200.067 43.36C198.317 42.592 196.888 41.5253 195.779 40.16C194.669 38.7947 193.859 37.152 193.347 35.232C192.835 33.312 192.579 31.1787 192.579 28.832ZM207.427 16.352C206.019 16.352 204.845 16.6933 203.907 17.376C203.011 18.016 202.285 18.8693 201.731 19.936C201.176 20.96 200.771 22.1333 200.515 23.456C200.301 24.736 200.173 26.0373 200.131 27.36C202.179 27.2747 203.907 27.0187 205.315 26.592C206.765 26.1227 207.939 25.568 208.835 24.928C209.731 24.2453 210.371 23.52 210.755 22.752C211.181 21.984 211.395 21.216 211.395 20.448C211.395 19.2107 211.032 18.2293 210.307 17.504C209.581 16.736 208.621 16.352 207.427 16.352ZM243.885 44V23.328C243.885 21.536 243.565 20.1067 242.925 19.04C242.285 17.9307 241.197 17.376 239.661 17.376C238.679 17.376 237.719 17.632 236.781 18.144C235.885 18.6133 235.074 19.3173 234.349 20.256C233.623 21.1947 233.026 22.3467 232.557 23.712C232.13 25.0347 231.917 26.528 231.917 28.192V44H224.621V27.872C224.621 25.312 224.45 23.1787 224.109 21.472C223.767 19.7227 223.405 18.3147 223.021 17.248C222.551 16.0107 222.039 15.008 221.485 14.24L227.245 11.936C227.671 12.4053 228.098 12.9813 228.525 13.664C228.866 14.2613 229.207 15.008 229.549 15.904C229.89 16.7573 230.167 17.7387 230.381 18.848C231.49 16.288 233.09 14.4533 235.181 13.344C237.271 12.192 239.469 11.616 241.773 11.616C245.058 11.616 247.426 12.6187 248.877 14.624C250.37 16.5867 251.117 19.2533 251.117 22.624V44H243.885Z" fill="#BC6C25"/>
</svg>
